<?xml version="1.0"?>
<!-- Created by MetaPost 2.000 on 2019.08.03:1733 -->
<svg version="1.1" xmlns="http://www.w3.org/2000/svg" xmlns:xlink="http://www.w3.org/1999/xlink" width="176.233597" height="73.330017" viewBox="0 0 176.233597 73.330017">
<!-- Original BoundingBox: -0.250000 -0.250000 175.983597 73.080017 -->
  <path d="M0.000000 73.000000C34.082169 13.967789,108.439316 73.000000,170.078705 73.000000" style="stroke:rgb(0.000000%,0.000000%,0.000000%); stroke-width: 0.500000;stroke-linecap: round;stroke-linejoin: round;stroke-miterlimit: 10.000000;fill: none;"></path>
  <path d="M0.000000 73.000000C32.463211 16.771912,105.856644 61.676056,170.078705 73.000000" style="stroke:rgb(0.000000%,0.000000%,0.000000%); stroke-width: 0.500000;stroke-linecap: round;stroke-linejoin: round;stroke-miterlimit: 10.000000;fill: none;"></path>
  <path d="M0.000000 73.000000C31.419800 18.579147,105.394897 49.456757,170.078705 73.000000" style="stroke:rgb(0.000000%,0.000000%,0.000000%); stroke-width: 0.500000;stroke-linecap: round;stroke-linejoin: round;stroke-miterlimit: 10.000000;fill: none;"></path>
  <path d="M0.000000 73.000000C31.242264 18.886642,107.714233 36.993958,170.078705 73.000000" style="stroke:rgb(0.000000%,0.000000%,0.000000%); stroke-width: 0.500000;stroke-linecap: round;stroke-linejoin: round;stroke-miterlimit: 10.000000;fill: none;"></path>
  <path d="M0.000000 73.000000C32.159973 17.297119,113.121048 25.206070,170.078705 73.000000" style="stroke:rgb(0.000000%,0.000000%,0.000000%); stroke-width: 0.500000;stroke-linecap: round;stroke-linejoin: round;stroke-miterlimit: 10.000000;fill: none;"></path>
  <path d="M0.000000 73.000000C34.324356 13.548309,121.490646 15.095947,170.078705 73.000000" style="stroke:rgb(0.000000%,0.000000%,0.000000%); stroke-width: 0.500000;stroke-linecap: round;stroke-linejoin: round;stroke-miterlimit: 10.000000;fill: none;"></path>
  <path d="M0.000000 73.000000C37.795212 7.536575,132.283493 7.536575,170.078705 73.000000" style="stroke:rgb(0.000000%,0.000000%,0.000000%); stroke-width: 0.500000;stroke-linecap: round;stroke-linejoin: round;stroke-miterlimit: 10.000000;fill: none;"></path>
  <path d="M0.000000 73.000000C42.524170 -0.654221,144.633392 3.090363,170.078705 73.000000" style="stroke:rgb(0.000000%,0.000000%,0.000000%); stroke-width: 0.500000;stroke-linecap: round;stroke-linejoin: round;stroke-miterlimit: 10.000000;fill: none;"></path>
  <path d="M0.000000 73.000000C48.342834 -10.732498,157.533707 1.852905,170.078705 73.000000" style="stroke:rgb(0.000000%,0.000000%,0.000000%); stroke-width: 0.500000;stroke-linecap: round;stroke-linejoin: round;stroke-miterlimit: 10.000000;fill: none;"></path>
  <path d="M0.000000 73.000000C54.947220 -22.171646,170.078705 3.378769,170.078705 73.000000" style="stroke:rgb(0.000000%,0.000000%,0.000000%); stroke-width: 0.500000;stroke-linecap: round;stroke-linejoin: round;stroke-miterlimit: 10.000000;fill: none;"></path>
  <path d="M0.000000 73.000000C61.891327 -34.199219,181.767868 6.706650,170.078705 73.000000" style="stroke:rgb(0.000000%,0.000000%,0.000000%); stroke-width: 0.500000;stroke-linecap: round;stroke-linejoin: round;stroke-miterlimit: 10.000000;fill: none;"></path>
  <path d="M0.000000 73.000000C68.589844 -45.801437,192.815842 10.530930,170.078705 73.000000" style="stroke:rgb(0.000000%,0.000000%,0.000000%); stroke-width: 0.500000;stroke-linecap: round;stroke-linejoin: round;stroke-miterlimit: 10.000000;fill: none;"></path>
  <path d="M0.000000 73.000000C74.342880 -55.766037,204.397141 13.558548,170.078705 73.000000" style="stroke:rgb(0.000000%,0.000000%,0.000000%); stroke-width: 0.500000;stroke-linecap: round;stroke-linejoin: round;stroke-miterlimit: 10.000000;fill: none;"></path>
</svg>
