
<svg xmlns="http://www.w3.org/2000/svg" xmlns:xlink="http://www.w3.org/1999/xlink" width="500px" height="500px" viewBox="0 0 1000 1000">
  <g transform="matrix(1 0 0 -1 0 726)">
   <path fill="currentColor"
d="M380 171c-56 -51 -106 -109 -150 -171c-44 62 -94 120 -150 171c2 11 3 21 3 32s-1 21 -3 32c43 -30 83 -63 120 -99v318h60v-318c37 36 77 69 120 99c-2 -11 -3 -21 -3 -32s1 -21 3 -32zM720 171c-56 -51 -106 -109 -150 -171c-44 62 -94 120 -150 171c2 11 3 21 3 32
s-1 21 -3 32c43 -30 83 -63 120 -99v318h60v-318c37 36 77 69 120 99c-2 -11 -3 -21 -3 -32s1 -21 3 -32z" />
  </g>

</svg>
